<?xml version="1.0" encoding="UTF-8"?>
<svg width="180" height="180" viewBox="0 0 180 180" fill="none" xmlns="http://www.w3.org/2000/svg">
  <!-- Background with rounded corners for iOS -->
  <rect width="180" height="180" rx="36" fill="url(#tropicalGradient)"/>
  
  <!-- Main tropical fruits composition -->
  <!-- Large mango -->
  <ellipse cx="70" cy="65" rx="22" ry="35" fill="#FFB800" opacity="0.9"/>
  <ellipse cx="70" cy="65" rx="18" ry="30" fill="#FFA000"/>
  <ellipse cx="70" cy="60" rx="12" ry="20" fill="#FF8F00" opacity="0.8"/>
  
  <!-- Pineapple crown -->
  <path d="M100 35 L110 25 L120 35 L130 25 L140 35 L150 25 L160 35 L150 45 L140 35 L130 45 L120 35 L110 45 L100 35" fill="#4CAF50"/>
  <path d="M105 30 L115 20 L125 30 L135 20 L145 30 L155 20 L155 25 L145 35 L135 25 L125 35 L115 25 L105 35" fill="#66BB6A"/>
  
  <!-- Large pineapple body -->
  <ellipse cx="130" cy="85" rx="18" ry="30" fill="#FFD54F"/>
  <ellipse cx="130" cy="85" rx="15" ry="25" fill="#FFCC02"/>
  
  <!-- Pineapple pattern -->
  <path d="M115 65 L145 65 M112 75 L148 75 M115 85 L145 85 M112 95 L148 95 M115 105 L145 105" stroke="#FF8F00" stroke-width="2"/>
  <path d="M120 70 L140 70 M118 80 L142 80 M120 90 L140 90 M118 100 L142 100" stroke="#FF8F00" stroke-width="1.5"/>
  
  <!-- Large coconut -->
  <circle cx="60" cy="130" r="20" fill="#8D6E63"/>
  <ellipse cx="60" cy="125" rx="16" ry="12" fill="#A1887F"/>
  <ellipse cx="60" cy="120" rx="10" ry="6" fill="#BCAAA4"/>
  
  <!-- Kiwi slice -->
  <circle cx="120" cy="135" r="15" fill="#8BC34A"/>
  <circle cx="120" cy="135" r="12" fill="#AED581"/>
  <circle cx="120" cy="135" r="8" fill="#C8E6C9"/>
  <circle cx="120" cy="135" r="4" fill="#E8F5E8"/>
  <!-- Kiwi seeds -->
  <circle cx="116" cy="131" r="1" fill="#4E342E"/>
  <circle cx="124" cy="139" r="1" fill="#4E342E"/>
  <circle cx="120" cy="127" r="0.8" fill="#4E342E"/>
  <circle cx="112" cy="138" r="0.8" fill="#4E342E"/>
  <circle cx="128" cy="132" r="0.8" fill="#4E342E"/>
  
  <!-- AI chef elements -->
  <!-- Chef hat -->
  <ellipse cx="90" cy="25" rx="12" ry="8" fill="#FFFFFF" opacity="0.9"/>
  <rect x="85" y="25" width="10" height="6" fill="#FFFFFF" opacity="0.8"/>
  
  <!-- AI sparkles and magic -->
  <circle cx="40" cy="40" r="4" fill="#E91E63" opacity="0.8"/>
  <circle cx="160" cy="70" r="3" fill="#E91E63" opacity="0.6"/>
  <circle cx="30" cy="90" r="2.5" fill="#E91E63" opacity="0.7"/>
  <circle cx="150" cy="150" r="3.5" fill="#E91E63" opacity="0.8"/>
  <circle cx="45" cy="160" r="2" fill="#E91E63" opacity="0.6"/>
  
  <!-- Magic wand effect -->
  <path d="M20 20 L30 30 M25 15 L35 25 M15 25 L25 35" stroke="#E91E63" stroke-width="2" opacity="0.7"/>
  <circle cx="25" cy="25" r="2" fill="#E91E63" opacity="0.9"/>
  
  <!-- Brand text curve (subtle) -->
  <path d="M30 160 Q90 150 150 160" stroke="#FFFFFF" stroke-width="1" opacity="0.3" fill="none"/>
  
  <!-- Define gradient -->
  <defs>
    <linearGradient id="tropicalGradient" x1="0%" y1="0%" x2="100%" y2="100%">
      <stop offset="0%" style="stop-color:#FF6B35;stop-opacity:1" />
      <stop offset="30%" style="stop-color:#F7931E;stop-opacity:1" />
      <stop offset="70%" style="stop-color:#FFD23F;stop-opacity:1" />
      <stop offset="100%" style="stop-color:#4CAF50;stop-opacity:0.8" />
    </linearGradient>
  </defs>
</svg>