<?xml version="1.0" encoding="UTF-8"?>
<svg width="32" height="32" viewBox="0 0 32 32" fill="none" xmlns="http://www.w3.org/2000/svg">
  <!-- Background circle with tropical gradient -->
  <circle cx="16" cy="16" r="16" fill="url(#tropicalGradient)"/>
  
  <!-- Mango shape -->
  <ellipse cx="13" cy="12" rx="4" ry="6" fill="#FFB800" opacity="0.9"/>
  <ellipse cx="13" cy="12" rx="3" ry="5" fill="#FFA000"/>
  
  <!-- Pineapple crown -->
  <path d="M18 8 L20 6 L22 8 L24 6 L26 8 L24 10 L22 8 L20 10 L18 8" fill="#4CAF50"/>
  
  <!-- Pineapple body -->
  <ellipse cx="22" cy="15" rx="3" ry="5" fill="#FFD54F"/>
  <path d="M20 12 L24 12 M19 14 L25 14 M20 16 L24 16 M19 18 L25 18" stroke="#FF8F00" stroke-width="0.5"/>
  
  <!-- Coconut -->
  <circle cx="10" cy="22" r="3" fill="#8D6E63"/>
  <ellipse cx="10" cy="21" rx="2" ry="1.5" fill="#A1887F"/>
  
  <!-- AI sparkles -->
  <circle cx="8" cy="6" r="1" fill="#E91E63" opacity="0.8"/>
  <circle cx="26" cy="12" r="0.8" fill="#E91E63" opacity="0.6"/>
  <circle cx="6" cy="16" r="0.6" fill="#E91E63" opacity="0.7"/>
  <circle cx="24" cy="26" r="0.8" fill="#E91E63" opacity="0.8"/>
  
  <!-- Define gradient -->
  <defs>
    <linearGradient id="tropicalGradient" x1="0%" y1="0%" x2="100%" y2="100%">
      <stop offset="0%" style="stop-color:#FF6B35;stop-opacity:1" />
      <stop offset="50%" style="stop-color:#F7931E;stop-opacity:1" />
      <stop offset="100%" style="stop-color:#FFD23F;stop-opacity:1" />
    </linearGradient>
  </defs>
</svg>