<?xml version="1.0" encoding="UTF-8"?>
<svg width="180" height="180" viewBox="0 0 180 180" fill="none" xmlns="http://www.w3.org/2000/svg">
  <defs>
    <linearGradient id="tropicalGradientApple" x1="0%" y1="0%" x2="100%" y2="100%">
      <stop offset="0%" style="stop-color:#FF6B35;stop-opacity:1" />
      <stop offset="25%" style="stop-color:#F7931E;stop-opacity:1" />
      <stop offset="50%" style="stop-color:#FFD54F;stop-opacity:1" />
      <stop offset="75%" style="stop-color:#8BC34A;stop-opacity:1" />
      <stop offset="100%" style="stop-color:#4CAF50;stop-opacity:1" />
    </linearGradient>
    <radialGradient id="aiGlowApple" cx="50%" cy="50%" r="25%">
      <stop offset="0%" style="stop-color:#FFFFFF;stop-opacity:0.6" />
      <stop offset="100%" style="stop-color:#FFFFFF;stop-opacity:0" />
    </radialGradient>
    <filter id="shadow" x="-50%" y="-50%" width="200%" height="200%">
      <feDropShadow dx="2" dy="4" stdDeviation="3" flood-opacity="0.3"/>
    </filter>
  </defs>
  
  <!-- Background circle with shadow -->
  <circle cx="90" cy="90" r="85" fill="url(#tropicalGradientApple)" filter="url(#shadow)"/>
  
  <!-- Main tropical fruit (mango-style) -->
  <ellipse cx="90" cy="80" rx="35" ry="45" fill="#FFB300" opacity="0.95"/>
  <ellipse cx="90" cy="75" rx="25" ry="35" fill="#FF8F00" opacity="0.8"/>
  <ellipse cx="90" cy="70" rx="15" ry="25" fill="#FF6F00" opacity="0.6"/>
  
  <!-- Tropical leaves -->
  <path d="M120 40 Q140 50 130 75 Q120 60 110 50 Q115 45 120 40" fill="#4CAF50" opacity="0.8"/>
  <path d="M60 40 Q40 50 50 75 Q60 60 70 50 Q65 45 60 40" fill="#66BB6A" opacity="0.7"/>
  
  <!-- AI neural network nodes -->
  <circle cx="45" cy="45" r="6" fill="#E1F5FE" opacity="0.9"/>
  <circle cx="135" cy="135" r="5" fill="#E1F5FE" opacity="0.8"/>
  <circle cx="30" cy="135" r="4" fill="#E1F5FE" opacity="0.7"/>
  <circle cx="150" cy="60" r="3.5" fill="#E1F5FE" opacity="0.75"/>
  
  <!-- AI connecting network -->
  <path d="M45 45 L90 80 L135 135" stroke="#E1F5FE" stroke-width="2" opacity="0.4"/>
  <path d="M30 135 L90 80 L150 60" stroke="#E1F5FE" stroke-width="2" opacity="0.3"/>
  <path d="M45 45 L150 60" stroke="#E1F5FE" stroke-width="1.5" opacity="0.2"/>
  
  <!-- Central AI core glow -->
  <circle cx="90" cy="90" r="20" fill="url(#aiGlowApple)"/>
  
  <!-- Chef hat accent (subtle) -->
  <ellipse cx="90" cy="30" rx="15" ry="8" fill="#FFFFFF" opacity="0.6"/>
  <ellipse cx="90" cy="25" rx="12" ry="6" fill="#F5F5F5" opacity="0.8"/>
</svg>